<?xml version="1.0" encoding="UTF-8" standalone="no"?>
<!-- Created with Inkscape (http://www.inkscape.org/) -->

<svg
   xmlns:dc="http://purl.org/dc/elements/1.1/"
   xmlns:cc="http://creativecommons.org/ns#"
   xmlns:rdf="http://www.w3.org/1999/02/22-rdf-syntax-ns#"
   xmlns:svg="http://www.w3.org/2000/svg"
   xmlns="http://www.w3.org/2000/svg"
   xmlns:sodipodi="http://sodipodi.sourceforge.net/DTD/sodipodi-0.dtd"
   xmlns:inkscape="http://www.inkscape.org/namespaces/inkscape"
   width="256"
   height="256"
   viewBox="0 0 256 256"
   id="svg2"
   version="1.1"
   inkscape:version="0.91 r13725"
   sodipodi:docname="icon.svg"
   inkscape:export-filename="C:\Users\Evan\mkzebra\icon.png"
   inkscape:export-xdpi="90"
   inkscape:export-ydpi="90">
  <defs
     id="defs4" />
  <sodipodi:namedview
     id="base"
     pagecolor="#ffffff"
     bordercolor="#666666"
     borderopacity="1.0"
     inkscape:pageopacity="0.0"
     inkscape:pageshadow="2"
     inkscape:zoom="1.2291505"
     inkscape:cx="128.5153"
     inkscape:cy="86.814703"
     inkscape:document-units="px"
     inkscape:current-layer="layer1"
     showgrid="false"
     units="px"
     inkscape:window-width="1920"
     inkscape:window-height="1057"
     inkscape:window-x="-8"
     inkscape:window-y="-8"
     inkscape:window-maximized="1" />
  <metadata
     id="metadata7">
    <rdf:RDF>
      <cc:Work
         rdf:about="">
        <dc:format>image/svg+xml</dc:format>
        <dc:type
           rdf:resource="http://purl.org/dc/dcmitype/StillImage" />
        <dc:title />
      </cc:Work>
    </rdf:RDF>
  </metadata>
  <g
     inkscape:label="Layer 1"
     inkscape:groupmode="layer"
     id="layer1"
     transform="translate(0,-796.36216)">
    <rect
       style="fill:#000000;fill-opacity:1;stroke:none;stroke-opacity:1"
       id="rect4900"
       width="256"
       height="256"
       x="0"
       y="796.36218" />
    <g
       id="g4888"
       transform="matrix(1.3615272,0,0,1.3615272,245.01495,-460.81688)">
      <path
         sodipodi:type="star"
         style="opacity:1;fill:#ffff00;fill-opacity:1;stroke:none;stroke-width:1;stroke-linecap:round;stroke-linejoin:round;stroke-miterlimit:4;stroke-dasharray:none;stroke-dashoffset:0;stroke-opacity:1"
         id="path4278"
         sodipodi:sides="3"
         sodipodi:cx="-85.943901"
         sodipodi:cy="1000.3228"
         sodipodi:r1="79.241524"
         sodipodi:r2="39.620766"
         sodipodi:arg1="1.5707963"
         sodipodi:arg2="2.6179939"
         inkscape:flatsided="true"
         inkscape:rounded="0"
         inkscape:randomized="0"
         d="m -85.943899,1079.5643 -68.625171,-118.86225 137.25034,0 z"
         inkscape:transform-center-y="19.810388" />
      <path
         inkscape:connector-curvature="0"
         id="path4266"
         d="m -142.48432,967.62637 c 0.0824,0.0767 1.54885,1.30279 3.25866,2.72502 l 3.1088,2.58609 1.28525,0.099 1.28528,0.099 1.68066,0.98021 1.68069,0.9802 0.73233,1.00001 0.73233,0.99968 1.86812,1.04312 c 1.02745,0.57363 1.8681,1.08688 1.8681,1.14086 0,0.0543 -0.15928,0.36921 -0.354,0.70138 l -0.354,0.60396 0.43078,0.24912 c 2.89531,1.68286 6.67755,3.84768 6.72137,3.84704 0.0307,-3.2e-4 0.15966,-0.18205 0.28656,-0.40499 l 0.23072,-0.40402 1.86768,1.08145 1.86767,1.08177 0.59118,-0.0607 c 0.32515,-0.0319 0.69364,-0.0862 0.8189,-0.11498 0.16566,-0.0383 0.93903,0.35804 2.83794,1.45737 l 2.61022,1.51071 0.0831,1.07474 c 0.0551,0.71256 0.13104,1.11211 0.22513,1.18493 0.078,0.0607 1.89402,1.11978 4.03541,2.35422 2.14138,1.23443 3.893399,2.26733 3.893361,2.29576 -4.8e-5,0.0319 -0.0396,0.11498 -0.08783,0.18844 -0.06857,0.10859 -0.327661,0 -1.184441,-0.49473 -0.60315,-0.34814 -1.10808,-0.6177 -1.12205,-0.59918 -0.0137,0.0319 -0.40886,0.7017 -0.87752,1.51806 -0.46865,0.81635 -1.16234,2.01949 -1.54151,2.6736 l -0.68942,1.18909 4.69124,8.1256 4.691257,8.1259 3.128605,0.032 3.128599,0.032 0,-1.2807 c 0,-1.0706 0.02523,-1.2811 0.153562,-1.2811 0.134207,0 0.153753,0.5893 0.155159,4.6829 l 0.0012,4.6832 0.919657,0.6017 0.919644,0.6018 0,3.0683 0,3.0681 -0.511804,0.6126 -0.511808,0.6125 0,2.192 0,2.1916 -0.460628,0 -0.460632,0 0,4.1457 0,4.1457 0.818893,0 0.818893,0 0,2.2018 0,2.2022 0.460632,1.146 0.460628,1.146 0,1.8623 0,1.8627 -0.452452,1.1926 -0.452455,1.1923 0.639345,4.2172 c 0.458195,3.022 0.65788,4.1156 0.704772,3.8588 0.03603,-0.198 0.321992,-2.0923 0.635568,-4.2118 l 0.570127,-3.8531 -0.398181,-1.06 -0.398173,-1.0601 -0.0512,-2.0377 -0.0512,-2.0373 0.445783,-1.109 0.445767,-1.1089 0,-2.2022 0,-2.2018 0.818896,0 0.818893,0 0,-4.1457 0,-4.1457 -0.511807,0 -0.511807,0 0,-2.243 0,-2.2428 -0.511804,-0.6126 -0.511808,-0.6125 0,-2.9764 0,-2.9764 0.921244,-0.6196 0.921261,-0.6193 0,-4.7062 c 0,-4.6378 0.0025,-4.7059 0.204696,-4.7059 0.193805,0 0.204728,0.067 0.204728,1.2795 l 0,1.2795 3.147624,0 3.147625,0 4.657473,-8.0917 c 2.561582,-4.4507 4.651373,-8.155 4.643932,-8.232 -0.01278,-0.1245 -2.833456,-5.09423 -3.006883,-5.2964 -0.03833,-0.0447 -0.547487,0.19483 -1.131453,0.53561 -0.695906,0.40435 -1.096436,0.58225 -1.162408,0.51614 -0.06359,-0.0639 -0.06484,-0.13734 -0.0038,-0.19483 0.0534,-0.0511 1.870658,-1.11818 4.038169,-2.36827 2.16753,-1.25072 3.950389,-2.28043 3.961919,-2.28874 0.0096,0 0.0527,-0.50814 0.09198,-1.11051 l 0.0709,-1.09518 2.623042,-1.5139 2.623042,-1.51359 0.790614,0.13095 0.790614,0.13095 1.861748,-1.0741 1.861811,-1.0741 0.244013,0.40913 c 0.134143,0.22357 0.275313,0.39157 0.313959,0.36985 0.03865,-0.0319 1.647086,-0.94858 3.574756,-2.05973 l 3.504905,-2.02045 -0.357236,-0.63878 c -0.196424,-0.35133 -0.3573,-0.66465 -0.3573,-0.69627 0,-0.0319 0.863691,-0.54583 1.919301,-1.14277 l 1.91927,-1.0856 0.744015,-1.01119 0.743984,-1.01118 1.712689,-0.9703 1.712721,-0.96998 1.22495,-0.12137 c 0.691796,-0.0671 1.293268,-0.17886 1.381867,-0.25551 0.08624,-0.0735 1.5292,-1.27532 3.206469,-2.67009 1.677236,-1.39477 3.03419,-2.55128 3.01541,-2.57012 -0.01916,-0.0319 -1.79228,0.62025 -3.941254,1.42032 l -3.907143,1.45418 -0.720157,1.01597 -0.720158,1.01566 -1.714892,0.99745 -1.714861,0.99745 -1.222076,0.12775 -1.222076,0.12776 -1.87133,1.11562 c -1.029229,0.61387 -1.917033,1.08752 -1.972862,1.05335 -0.05557,-0.0351 -0.253275,-0.33185 -0.438393,-0.66082 l -0.336859,-0.59757 -3.516212,2.02811 c -1.933929,1.11531 -3.537707,2.04952 -3.563896,2.07571 -0.02555,0.0319 0.0511,0.23954 0.171511,0.47684 0.12041,0.23635 0.204409,0.4398 0.186204,0.45258 -0.01597,0 -0.746731,0.43117 -1.619332,0.92942 -2.163793,1.23603 -2.061429,1.15044 -2.34297,1.96264 l -0.244652,0.70585 -2.617037,1.51167 -2.617038,1.51198 -1.007095,-0.47365 -1.007032,-0.47366 -4.064401,2.34719 c -3.778222,2.18238 -4.208918,2.39158 -4.216375,2.04824 -9.2e-4,-0.0383 0.481516,-0.35452 1.071957,-0.69946 1.025291,-0.59917 1.067834,-0.63782 0.946843,-0.8566 -0.06972,-0.12456 -0.770783,-1.34303 -1.558031,-2.70426 l -1.431365,-2.47558 -9.411661,0.0319 -9.41166,0.0319 -1.523378,2.6356 c -0.837855,1.4497 -1.49585,2.67999 -1.462205,2.7346 0.0337,0.0543 0.517387,0.35708 1.074966,0.67295 0.708177,0.40084 0.996875,0.61802 0.957702,0.72022 -0.03098,0.0799 -0.07343,0.14692 -0.09467,0.14692 -0.02108,0 -1.833462,-1.03641 -4.027194,-2.30311 -2.19374,-1.26669 -4.03128,-2.30311 -4.08342,-2.30311 -0.0522,0 -0.52405,0.20441 -1.04867,0.45321 l -0.95384,0.45322 -0.41513,-0.24274 c -0.22834,-0.13414 -1.40119,-0.81284 -2.60635,-1.51007 l -2.19121,-1.26733 -0.29934,-0.76015 -0.29929,-0.76014 -1.79106,-1.02364 c -0.98508,-0.56308 -1.83828,-1.05239 -1.89599,-1.08752 -0.0652,-0.0383 -0.0144,-0.22038 0.13427,-0.4794 0.13159,-0.22996 0.21693,-0.43629 0.18968,-0.46184 -0.0875,-0.083 -6.79956,-3.9454 -6.9615,-4.00673 -0.11169,-0.0415 -0.26423,0.12776 -0.53627,0.60173 l -0.38016,0.66082 -1.87289,-1.10477 -1.8729,-1.10476 -1.22468,-0.13415 -1.22468,-0.13414 -1.72246,-0.96998 -1.7225,-0.96966 -0.70179,-1.046 c -0.38601,-0.57554 -0.78551,-1.0789 -0.88777,-1.11914 -0.59547,-0.23315 -7.74505,-2.8202 -7.79519,-2.8202 -0.0332,0 0.006,0.0639 0.0894,0.14053 z"
         style="fill:#000000" />
    </g>
  </g>
</svg>
